<svg width="23" height="25" viewBox="0 0 23 25" fill="none" xmlns="http://www.w3.org/2000/svg">
<path d="M22.6163 15.8153L16.1029 12.1567L22.6163 8.49809C22.9833 8.29191 23.1089 7.83569 22.8971 7.47837L21.3628 4.89268C21.151 4.53583 20.6819 4.41314 20.3148 4.61933L13.8015 8.27791V0.961208C13.8015 0.548842 13.4579 0.214844 13.0343 0.214844H9.96569C9.54211 0.214844 9.19854 0.548842 9.19854 0.961208V8.27838L2.68517 4.61979C2.31812 4.41361 1.84901 4.53629 1.63722 4.89315L0.102912 7.47837C-0.108881 7.83523 0.0166615 8.29191 0.383707 8.49809L6.89708 12.1567L0.383707 15.8153C0.0166615 16.0214 -0.108881 16.4781 0.102912 16.835L1.63722 19.4207C1.84901 19.7775 2.31812 19.8997 2.68517 19.694L9.19854 16.0354V23.3521C9.19854 23.7645 9.54211 24.0985 9.96569 24.0985H13.0343C13.4579 24.0985 13.8015 23.7645 13.8015 23.3521V16.035L20.3148 19.6936C20.6819 19.8997 21.151 19.7775 21.3628 19.4202L22.8971 16.8345C23.1089 16.4777 22.9833 16.0214 22.6163 15.8153Z" fill="#5A4D4D"/>
</svg>
