<?xml version="1.0" standalone="no"?>
<!DOCTYPE svg PUBLIC "-//W3C//DTD SVG 20010904//EN"
 "http://www.w3.org/TR/2001/REC-SVG-20010904/DTD/svg10.dtd">
<svg version="1.0" xmlns="http://www.w3.org/2000/svg"
 width="100.000000pt" height="100.000000pt" viewBox="0 0 100.000000 100.000000"
 preserveAspectRatio="xMidYMid meet">

<g transform="translate(0.000000,100.000000) scale(0.100000,-0.100000)"
fill="#ffffff" stroke="none">
<path d="M419 872 c-14 -32 -25 -40 -77 -60 -58 -22 -63 -22 -93 -6 l-32 16
-45 -45 -46 -46 15 -38 c15 -36 14 -41 -12 -100 -24 -52 -34 -63 -64 -73 l-35
-12 0 -64 0 -64 74 0 73 0 5 78 c6 97 37 161 108 225 120 108 300 108 420 0
71 -64 102 -128 108 -225 l5 -78 73 0 74 0 0 64 0 64 -35 12 c-30 10 -40 21
-64 73 -26 59 -27 64 -12 100 l15 38 -46 46 -45 45 -32 -16 c-30 -16 -35 -16
-93 6 -52 20 -63 28 -77 60 l-16 38 -65 0 -65 0 -16 -38z"/>
<path d="M367 518 c-43 -58 -43 -58 17 -58 l56 0 0 45 c0 41 -2 45 -24 45 -17
0 -33 -11 -49 -32z"/>
<path d="M470 505 l0 -45 82 0 81 0 -23 28 c-46 52 -62 62 -101 62 l-39 0 0
-45z"/>
<path d="M262 414 c-13 -9 -24 -30 -28 -55 l-7 -39 -56 0 c-31 0 -62 5 -68 11
-15 15 -54 7 -67 -13 -24 -38 35 -76 67 -44 11 12 36 16 95 16 75 0 79 1 90
26 14 29 72 57 99 47 25 -8 63 -44 63 -59 0 -6 7 -14 15 -18 12 -4 15 -24 15
-91 l0 -85 108 0 c64 0 112 -4 119 -11 19 -19 58 -6 61 19 7 44 -41 70 -68 37
-9 -11 -35 -15 -101 -15 l-89 0 0 75 c0 60 3 75 15 75 8 0 15 6 15 13 0 16 37
51 63 60 24 9 83 -16 96 -41 6 -12 11 -41 11 -66 l0 -46 85 0 c60 0 93 -5 109
-15 27 -18 53 -11 61 15 13 42 -32 75 -64 46 -13 -12 -38 -16 -89 -16 -69 0
-72 1 -72 24 0 13 7 26 15 30 22 8 18 33 -5 39 -26 7 -26 37 0 37 14 0 18 5
13 18 -14 39 -29 42 -258 42 -183 0 -224 -3 -243 -16z m247 -23 c16 -10 6 -31
-14 -31 -17 0 -28 17 -20 30 8 12 16 12 34 1z"/>
<path d="M327 312 c-22 -25 -21 -48 3 -72 11 -11 20 -31 20 -45 0 -23 -3 -25
-50 -25 -29 0 -61 7 -75 16 -22 14 -25 14 -44 -5 -26 -26 -26 -33 -2 -55 20
-18 61 -15 61 5 0 5 32 9 70 9 l70 0 0 38 c0 25 7 43 20 55 22 19 27 66 8 85
-18 18 -63 14 -81 -6z m61 -35 c2 -12 -3 -17 -17 -17 -12 0 -21 6 -21 13 0 31
32 34 38 4z"/>
<path d="M582 318 c-30 -30 -3 -98 39 -98 24 0 59 34 59 58 0 41 -69 69 -98
40z m56 -41 c2 -12 -3 -17 -17 -17 -12 0 -21 6 -21 13 0 31 32 34 38 4z"/>
</g>
</svg>
