<?xml version="1.0" standalone="no"?>
<!DOCTYPE svg PUBLIC "-//W3C//DTD SVG 20010904//EN"
 "http://www.w3.org/TR/2001/REC-SVG-20010904/DTD/svg10.dtd">
<svg version="1.0" xmlns="http://www.w3.org/2000/svg"
 width="320.000000pt" height="321.000000pt" viewBox="0 0 320.000000 321.000000"
 preserveAspectRatio="xMidYMid meet">

<g transform="translate(0.000000,321.000000) scale(0.100000,-0.100000)"
fill="#ffffff" stroke="none">
<path d="M475 3044 c-13 -13 -15 -38 -13 -146 3 -143 9 -157 61 -144 26 6 27
9 27 71 0 36 3 65 7 65 4 0 74 -66 155 -147 81 -81 149 -145 150 -142 2 2 17
19 33 37 l30 34 -150 144 -150 144 47 0 c70 0 98 14 98 48 0 47 -13 52 -151
52 -104 0 -131 -3 -144 -16z"/>
<path d="M1351 2824 c-24 -20 -31 -34 -31 -60 0 -89 116 -116 158 -37 19 35
14 63 -17 94 -36 36 -70 37 -110 3z"/>
<path d="M1175 2695 c-44 -24 -80 -48 -79 -52 0 -4 8 -25 17 -45 l17 -36 81
44 c45 24 84 46 87 48 5 6 -31 86 -38 85 -3 0 -41 -20 -85 -44z"/>
<path d="M1504 2671 l-31 -34 130 -118 130 -118 32 32 32 32 -52 50 c-28 28
-87 82 -131 121 l-79 70 -31 -35z"/>
<path d="M930 2600 c-28 -28 -34 -63 -16 -98 28 -54 106 -61 142 -14 22 28 17
86 -9 110 -30 29 -89 30 -117 2z"/>
<path d="M380 2260 l0 -330 145 0 145 0 0 330 0 330 -145 0 -145 0 0 -330z"/>
<path d="M1809 2401 c-17 -18 -29 -40 -29 -56 0 -38 50 -85 90 -85 44 0 80 39
80 85 0 79 -84 112 -141 56z"/>
<path d="M1270 1885 l0 -385 39 19 c53 28 116 102 141 167 15 41 20 79 20 149
l0 95 50 0 50 0 0 170 0 170 -150 0 -150 0 0 -385z"/>
<path d="M830 1897 l0 -234 30 -44 c46 -71 135 -127 223 -143 l37 -7 0 331 0
330 -145 0 -145 0 0 -233z"/>
<path d="M180 1730 l0 -79 116 -3 117 -3 22 -65 c12 -36 34 -88 48 -117 15
-29 27 -55 27 -58 0 -3 -36 -42 -81 -87 l-81 -81 108 -108 109 -109 82 82 82
82 78 -37 c43 -20 99 -42 126 -49 l47 -12 0 -118 0 -118 155 0 154 0 3 116 3
116 80 27 c44 15 99 38 122 52 l42 24 83 -82 83 -83 110 110 110 110 -83 83
-82 83 34 64 c19 36 42 91 51 123 l16 57 120 0 119 0 0 80 0 80 -250 0 -250 0
0 -32 c-1 -123 -94 -284 -208 -357 -283 -181 -656 -14 -712 318 l-12 71 -244
0 -244 0 0 -80z"/>
<path d="M2140 951 c-92 -31 -549 -227 -567 -243 -45 -42 -36 -148 14 -148 13
0 90 27 170 60 81 33 157 60 169 60 14 0 30 -10 40 -25 28 -43 5 -60 -181
-138 -169 -71 -170 -71 -265 -71 -108 -1 -90 -7 -410 126 -175 73 -222 89
-252 85 -60 -8 -130 -69 -112 -98 6 -10 98 -56 629 -312 251 -122 219 -123
568 22 253 104 273 111 337 111 46 0 87 -7 124 -21 31 -12 58 -20 60 -18 4 4
186 439 186 444 0 1 -89 40 -197 85 -198 83 -259 99 -313 81z"/>
<path d="M2615 555 c-70 -167 -124 -308 -121 -313 6 -9 146 -66 150 -61 28 37
377 562 374 563 -3 3 -220 93 -254 107 -20 7 -29 -11 -149 -296z"/>
</g>
</svg>
