<?xml version="1.0" encoding="UTF-8"?>
<svg version="1.1" xmlns="http://www.w3.org/2000/svg" width="32" height="32">
<path d="M0 0 C1.79244141 0.01740234 1.79244141 0.01740234 3.62109375 0.03515625 C5.41740234 0.04869141 5.41740234 0.04869141 7.25 0.0625 C8.17683594 0.07410156 9.10367187 0.08570313 10.05859375 0.09765625 C10.05859375 1.41765625 10.05859375 2.73765625 10.05859375 4.09765625 C6.42859375 4.09765625 2.79859375 4.09765625 -0.94140625 4.09765625 C-0.94140625 7.72765625 -0.94140625 11.35765625 -0.94140625 15.09765625 C2.68859375 15.09765625 6.31859375 15.09765625 10.05859375 15.09765625 C10.05859375 17.07765625 10.05859375 19.05765625 10.05859375 21.09765625 C7.41859375 21.09765625 4.77859375 21.09765625 2.05859375 21.09765625 C2.05859375 20.10765625 2.05859375 19.11765625 2.05859375 18.09765625 C0.07859375 18.09765625 -1.90140625 18.09765625 -3.94140625 18.09765625 C-3.96824937 15.28509344 -3.98816813 12.47278384 -4.00390625 9.66015625 C-4.01228516 8.85771484 -4.02066406 8.05527344 -4.02929688 7.22851562 C-4.03792055 5.18470404 -3.99368775 3.14081723 -3.94140625 1.09765625 C-2.94140625 0.09765625 -2.94140625 0.09765625 0 0 Z " fill="#ffffff" transform="translate(7.94140625,5.90234375)"/>
<path d="M0 0 C3 0.125 3 0.125 4 1.125 C4.09880797 2.60152664 4.13079245 4.08267236 4.1328125 5.5625 C4.13474609 6.90441406 4.13474609 6.90441406 4.13671875 8.2734375 C4.13285156 9.21445313 4.12898438 10.15546875 4.125 11.125 C4.12886719 12.06601562 4.13273437 13.00703125 4.13671875 13.9765625 C4.13542969 14.87117188 4.13414063 15.76578125 4.1328125 16.6875 C4.13168457 17.51378906 4.13055664 18.34007813 4.12939453 19.19140625 C4 21.125 4 21.125 3 22.125 C0 22.25 0 22.25 -3 22.125 C-4.58937556 20.53562444 -4.12981143 18.88600154 -4.1328125 16.6875 C-4.13410156 15.79289062 -4.13539062 14.89828125 -4.13671875 13.9765625 C-4.13091797 12.56503906 -4.13091797 12.56503906 -4.125 11.125 C-4.12886719 10.18398437 -4.13273437 9.24296875 -4.13671875 8.2734375 C-4.13542969 7.37882813 -4.13414063 6.48421875 -4.1328125 5.5625 C-4.13112061 4.32306641 -4.13112061 4.32306641 -4.12939453 3.05859375 C-3.91367654 -0.16496561 -3.2895365 0.13706402 0 0 Z M-1 3.125 C-1 6.095 -1 9.065 -1 12.125 C-0.34 12.125 0.32 12.125 1 12.125 C1 9.155 1 6.185 1 3.125 C0.34 3.125 -0.32 3.125 -1 3.125 Z " fill="#ffffff" transform="translate(24,4.875)"/>
</svg>
