<?xml version="1.0" standalone="no"?>
<!DOCTYPE svg PUBLIC "-//W3C//DTD SVG 20010904//EN"
 "http://www.w3.org/TR/2001/REC-SVG-20010904/DTD/svg10.dtd">
<svg version="1.0" xmlns="http://www.w3.org/2000/svg"
 width="500.000000pt" height="500.000000pt" viewBox="0 0 500.000000 500.000000"
 preserveAspectRatio="xMidYMid meet">

<g transform="translate(0.000000,500.000000) scale(0.100000,-0.100000)"
fill="#ffffff" stroke="none">
<path d="M2720 4350 c-36 -10 -211 -59 -390 -108 -818 -226 -1029 -287 -1018
-293 13 -7 601 -173 1188 -334 l314 -87 221 61 c298 82 686 190 940 262 116
32 227 59 248 59 l37 0 0 -208 0 -209 -65 -156 -64 -157 174 0 c109 0 175 4
175 10 0 5 -29 82 -65 169 l-65 160 0 231 0 230 -26 10 c-14 6 -57 10 -96 10
-59 0 -125 16 -402 94 -558 159 -992 276 -1017 275 -13 0 -53 -9 -89 -19z"/>
<path d="M1890 3383 c0 -227 3 -301 15 -348 43 -164 166 -285 336 -330 81 -22
1079 -22 1162 0 176 46 315 192 347 364 5 29 10 177 10 327 0 227 -2 274 -14
274 -8 0 -51 -11 -97 -24 -232 -67 -818 -226 -834 -226 -18 0 -677 179 -907
246 -17 5 -18 -13 -18 -283z"/>
<path d="M1205 2559 c-113 -36 -195 -119 -237 -237 -17 -49 -19 -77 -16 -227
3 -163 4 -173 31 -227 63 -129 179 -204 331 -215 84 -6 86 -6 86 -32 0 -14 3
-36 6 -48 l6 -21 -304 -4 c-288 -4 -306 -5 -360 -27 -81 -31 -160 -106 -200
-189 l-33 -67 0 -180 0 -180 32 -67 c40 -84 97 -141 181 -181 l67 -32 1553 0
1554 0 19 24 c25 30 24 66 -1 91 -17 17 -33 20 -115 20 -110 0 -110 -1 -145
117 -44 146 -42 304 6 430 37 100 42 103 144 103 71 0 90 3 103 18 26 29 22
77 -9 101 -27 21 -31 21 -960 21 l-934 0 0 50 0 50 1156 0 c720 0 1162 4 1173
10 28 14 44 61 32 93 -12 32 -49 43 -151 46 -44 1 -78 7 -82 14 -17 26 -59
173 -69 241 -16 110 5 246 52 337 l18 37 97 4 c86 4 99 7 115 27 26 32 24 67
-6 96 l-24 25 -1528 -1 c-1486 0 -1530 -1 -1588 -20z m1553 -391 c16 -16 15
-63 -1 -77 -10 -7 -141 -12 -423 -13 l-409 -3 -5 -202 -5 -203 -95 55 c-52 30
-102 55 -109 55 -8 0 -54 -22 -103 -50 -48 -27 -93 -51 -99 -52 -9 -2 -11 46
-10 182 1 102 -1 193 -4 203 -6 15 -22 17 -119 17 -74 0 -116 4 -124 12 -15
15 -15 61 0 76 17 17 1489 17 1506 0z m948 -13 c15 -23 15 -27 0 -50 l-16 -25
-212 0 c-183 0 -214 2 -230 17 -22 20 -23 41 -1 65 15 16 35 18 229 18 l214 0
16 -25z m-1871 -546 c41 -22 77 -45 81 -50 3 -5 -82 -9 -207 -9 -237 0 -234
-1 -122 62 96 53 147 53 248 -3z m-687 -485 c26 -18 29 -56 6 -78 -13 -13 -43
-16 -169 -16 -166 0 -185 6 -185 55 0 46 31 55 185 55 111 0 145 -3 163 -16z
m2112 -4 c24 -24 25 -38 4 -68 l-15 -22 -744 0 -744 0 -15 22 c-21 30 -20 44
4 68 20 20 33 20 755 20 722 0 735 0 755 -20z"/>
</g>
</svg>
