<?xml version="1.0" encoding="UTF-8"?>
<svg version="1.1" xmlns="http://www.w3.org/2000/svg" width="601" height="600">
<path d="M0 0 C0.66 0 1.32 0 2 0 C8.29445001 19.24536597 13.97483607 38.66781297 19.67626953 58.09466553 C21.18635385 63.23817834 22.69977197 68.38071097 24.21273232 73.52337837 C25.43665223 77.6838395 26.6599683 81.84447554 27.88168335 86.00558472 C30.07533582 93.47488215 32.27599186 100.94186688 34.50439453 108.40087891 C34.69634557 109.044348 34.8882966 109.6878171 35.08606434 110.35078526 C35.96886276 113.31010317 36.85408612 116.26864083 37.74424744 119.22575378 C38.04528885 120.23382584 38.34633026 121.24189789 38.65649414 122.28051758 C38.91805801 123.15098221 39.17962189 124.02144684 39.44911194 124.91828918 C40 127 40 127 40 129 C41.03060547 128.566875 41.03060547 128.566875 42.08203125 128.125 C42.98308594 127.75375 43.88414062 127.3825 44.8125 127 C45.70582031 126.62875 46.59914063 126.2575 47.51953125 125.875 C50 125 50 125 53 125 C57.0012177 140.30418073 60.48982515 155.54688872 62.875 171.1875 C62.97791351 171.8587793 63.08082703 172.53005859 63.18685913 173.22167969 C64.87818763 184.35667178 66.15071798 195.28730249 66.203125 206.5546875 C66.20882507 207.53631866 66.21452515 208.51794983 66.22039795 209.52932739 C66.22978689 211.5983169 66.23635741 213.66732095 66.24023438 215.73632812 C66.24986718 218.83231231 66.28092 221.9276105 66.3125 225.0234375 C66.47682097 255.85479493 60.63534622 283.64181927 41 308 C38.6594178 310.99437611 36.32922115 313.9967809 34 317 C40.17469663 317.07423798 46.34913261 317.12864413 52.52416992 317.16479492 C54.62415086 317.17986772 56.7241004 317.20032941 58.82397461 317.22631836 C61.84496824 317.26276754 64.86554511 317.27974159 67.88671875 317.29296875 C68.82335861 317.30845261 69.75999847 317.32393646 70.72502136 317.33988953 C79.20597828 317.34207198 83.05190223 314.13112518 89.1328125 308.5234375 C93.81644173 304.70206637 100.29576383 305.49988272 106 306 C112.75186455 307.75794815 116.51953641 312.16106438 120 318 C123.06220118 324.12440237 123.14308686 332.07579458 121.2421875 338.6015625 C118.44233601 345.19333884 115.05863819 350.23729903 108.40625 353.265625 C102.89539129 354.94751045 96.99597814 355.18671861 91.59375 353.046875 C87.50827619 350.63827477 84.84920155 347.7989354 82 344 C78.74833592 342.91611197 76.38769237 342.87133891 72.9656868 342.86577892 C71.69607455 342.86132108 70.42646231 342.85686324 69.11837697 342.85227031 C67.70141553 342.85235961 66.28445409 342.85254946 64.86749268 342.85282898 C63.36846405 342.84953044 61.86943632 342.84580489 60.37040973 342.8416875 C56.24052786 342.83165841 52.11066053 342.82794925 47.9807682 342.82529819 C43.53074143 342.82139787 39.0807262 342.81181939 34.63070679 342.80308533 C23.87914512 342.78331397 13.1275825 342.77325419 2.3760072 342.76435754 C-2.68476668 342.75997603 -7.74553951 342.7546089 -12.80631256 342.74936867 C-29.62514911 342.73235628 -46.443985 342.71786127 -63.26282883 342.71061993 C-67.62834423 342.70870998 -71.99385962 342.70678965 -76.359375 342.70483398 C-77.4444261 342.70435024 -78.5294772 342.7038665 -79.64740863 342.7033681 C-97.23147346 342.69506466 -114.81547033 342.66972248 -132.39950547 342.63725331 C-150.44480364 342.60420351 -168.49006725 342.58617308 -186.53539586 342.58297569 C-196.67039659 342.58080874 -206.8052982 342.57203305 -216.94026947 342.54651451 C-225.57015732 342.52483597 -234.19992197 342.51674307 -242.82983395 342.52648129 C-247.2337478 342.53103417 -251.63740731 342.52908257 -256.04128647 342.50971985 C-260.07313332 342.49214576 -264.1045392 342.49303877 -268.13639036 342.50861714 C-269.59469817 342.51100199 -271.05303606 342.50662428 -272.51129779 342.49478849 C-282.96703609 342.36776279 -282.96703609 342.36776279 -292 347 C-292.76828125 347.55042969 -293.5365625 348.10085938 -294.328125 348.66796875 C-294.96234375 349.16941406 -295.5965625 349.67085937 -296.25 350.1875 C-302.50982132 355.13275884 -309.28789659 354.59916453 -317 354 C-324.43379588 352.06277847 -328.86247165 346.62561627 -332.6328125 340.23046875 C-335.13191809 334.32543926 -334.81404377 328.28071173 -334 322 C-331.32900903 315.41889853 -326.11870854 310.01659951 -319.7421875 306.89453125 C-313.25554068 304.77851683 -304.80786571 304.68600437 -298.5625 307.625 C-295.22911582 309.62503051 -292.30336474 312.10504867 -289.4453125 314.73046875 C-286.72858165 317.11678639 -284.70368765 317.14340248 -281.18310547 317.20532227 C-280.18221893 317.22526749 -279.1813324 317.24521271 -278.15011597 317.26576233 C-277.06674957 317.28247482 -275.98338318 317.29918732 -274.8671875 317.31640625 C-273.76021515 317.33718735 -272.6532428 317.35796844 -271.51272583 317.37937927 C-267.96688201 317.44490991 -264.42096246 317.50377614 -260.875 317.5625 C-258.4752525 317.60568187 -256.07551273 317.64929605 -253.67578125 317.69335938 C-247.78393487 317.80059488 -241.89201269 317.90235472 -236 318 C-236.33209473 316.83936035 -236.33209473 316.83936035 -236.67089844 315.65527344 C-245.26723575 285.46522304 -251.2193558 256.18215329 -251.1875 224.625 C-251.1882251 223.88454437 -251.1889502 223.14408875 -251.18969727 222.38119507 C-251.18848609 211.1144106 -250.56883252 200.03540341 -249.45703125 188.8203125 C-247.15877845 165.4751411 -251.88903619 141.81807797 -256.38891602 118.98657227 C-257.07749786 115.48626041 -257.7475906 111.98272718 -258.41601562 108.47851562 C-258.85050487 106.23677392 -259.2860107 103.99522895 -259.72265625 101.75390625 C-259.92166031 100.713517 -260.12066437 99.67312775 -260.32569885 98.60121155 C-260.51607224 97.64427902 -260.70644562 96.6873465 -260.90258789 95.70141602 C-261.06674698 94.86272476 -261.23090607 94.02403351 -261.40003967 93.15992737 C-261.95358345 90.73186492 -261.95358345 90.73186492 -264 88 C-266.54823739 87.15949746 -269.02845301 86.46049289 -271.625 85.8125 C-285.54083766 82.01862197 -302.03954055 75.38925768 -310.18359375 62.76171875 C-311.6380715 59.62310886 -311.63289082 57.35432137 -311 54 C-304.28940134 45.61175168 -288.17997641 44.45834001 -278.06787109 43.20458984 C-271.98070611 42.60234141 -267.0898517 42.72969798 -261.8125 45.9375 C-259.44220126 48.28101571 -257.47673205 50.93095988 -255.4375 53.5625 C-249.85011336 60.73564019 -243.02814902 66.55132386 -236.24169922 72.55566406 C-235.09562134 73.57062422 -233.95213701 74.58852204 -232.81152344 75.60961914 C-231.75003284 76.5592479 -230.68189308 77.50150984 -229.60644531 78.43530273 C-228.34690507 79.56251857 -227.16545032 80.77575219 -226 82 C-226 82.99 -226 83.98 -226 85 C-227.98 85.99 -229.96 86.98 -232 88 C-231.38641495 96.34051031 -229.87924856 104.45395581 -228.27734375 112.65234375 C-228.00926304 114.04325012 -227.74165783 115.43424822 -227.47450256 116.82533264 C-226.77624444 120.45634193 -226.07319614 124.08640407 -225.36859131 127.71618652 C-224.23662368 133.54895304 -223.10959494 139.3826625 -221.98724556 145.21728706 C-221.59529172 147.24910247 -221.19976051 149.28019891 -220.80393982 151.31126404 C-220.56691849 152.5400679 -220.32989716 153.76887177 -220.08569336 155.03491211 C-219.7704496 156.65845863 -219.7704496 156.65845863 -219.44883728 158.31480408 C-219 161 -219 161 -219 164 C-215.37 164 -211.74 164 -208 164 C-209.99257327 171.45471097 -212.14196944 178.83095373 -214.46875 186.1875 C-214.79033081 187.21125732 -215.11191162 188.23501465 -215.4432373 189.28979492 C-216.80236064 193.61636226 -218.1662838 197.94141234 -219.52978516 202.26660156 C-220.53195326 205.44804197 -221.53164814 208.63025253 -222.53125 211.8125 C-222.83446167 212.77115967 -223.13767334 213.72981934 -223.45007324 214.7175293 C-224.92442082 219.41196325 -226.35065056 224.11766853 -227.69335938 228.8515625 C-227.93614624 229.7070166 -228.17893311 230.5624707 -228.42907715 231.44384766 C-230.38729601 240.21124193 -229.28565845 249.41438064 -224.7109375 257.19140625 C-218.28280105 266.24923488 -210.24752494 271.94625379 -199.25 273.9375 C-194.79868432 274.83543782 -193.01924736 276.52786553 -190 280 C-179.51617849 290.77818367 -166.18746524 296.95143447 -151.17578125 297.9609375 C-136.18130592 298.14537139 -123.55297777 292.17494561 -112.87890625 281.97265625 C-103.35498315 272.0166459 -98.29109364 259.41872664 -97.90625 245.64453125 C-98.66413837 229.78571705 -105.32308659 215.7023607 -117 205 C-123.97518595 199.88811547 -131.12824445 197.02231575 -139.48046875 194.921875 C-140.31191406 194.61765625 -141.14335937 194.3134375 -142 194 C-143.18878413 190.43364762 -142.72013686 189.39620485 -141.56640625 185.89453125 C-141.24736328 184.91162109 -140.92832031 183.92871094 -140.59960938 182.91601562 C-140.25736328 181.89185547 -139.91511719 180.86769531 -139.5625 179.8125 C-139.05493164 178.25885742 -139.05493164 178.25885742 -138.53710938 176.67382812 C-137.69929252 174.1131766 -136.85331644 171.5555198 -136 169 C-103.34700957 171.76186964 -55.74826426 185.25173574 -32 209 C-24.86332264 209 -20.46669552 205.25678068 -15 201 C-14.03513672 200.28457031 -14.03513672 200.28457031 -13.05078125 199.5546875 C-3.77782913 192.26135437 0.88940048 182.26651478 3.75 171.0625 C4.29950653 164.33104495 4.33095501 157.67324266 3.25 151 C2.87058615 147.91447268 2.8055121 147.31604284 4.5 144.5625 C7.54311976 142.66055015 10.54989932 141.93104352 14 141 C13.72010727 140.04836472 13.44021454 139.09672943 13.15184021 138.11625671 C0.10122681 93.74417114 -12.9493866 49.37208557 -26 5 C-23 4 -23 4 -21.3125 4.4375 C-13.71084715 6.28655069 -7.85260415 4.3261178 -1 1 C-0.67 0.67 -0.34 0.34 0 0 Z " fill="#ffffff" transform="translate(400,238)"/>
<path d="M0 0 C7.04143708 6.16462978 10.49425472 14.79950988 11.21484375 24.0390625 C11.22443822 25.62214937 11.14436981 27.20554665 11.0390625 28.78515625 C7.38220455 28.1853908 4.41828281 27.16849489 1.09765625 25.53515625 C0.18435547 25.09171875 -0.72894531 24.64828125 -1.66992188 24.19140625 C-2.61158203 23.72734375 -3.55324219 23.26328125 -4.5234375 22.78515625 C-6.39807443 21.86508904 -8.27431873 20.94828785 -10.15234375 20.03515625 C-10.97935791 19.6278125 -11.80637207 19.22046875 -12.65844727 18.80078125 C-18.46547621 16.23930947 -24.46287587 15.70680643 -30.55859375 17.5859375 C-37.1176537 20.46480092 -40.84228391 24.35221396 -43.9609375 30.78515625 C-45.85109655 36.70065401 -45.96354984 43.3349066 -43.3984375 49.03515625 C-37.79568302 58.29241784 -27.86706882 62.13281849 -18.5234375 66.66015625 C-17.10956504 67.35453085 -15.69614909 68.04983582 -14.28320312 68.74609375 C-10.84762018 70.4365595 -7.40609458 72.11429485 -3.9609375 73.78515625 C-5.25389049 80.15884579 -6.99783228 86.09375991 -9.26171875 92.18359375 C-9.91614936 93.98172217 -10.57044162 95.77990094 -11.22460938 97.578125 C-12.2418288 100.35377467 -13.2617223 103.12840107 -14.28491211 105.90185547 C-20.27703626 122.18350048 -25.29495956 138.48896103 -28.3359375 155.59765625 C-28.51253906 156.51095703 -28.68914062 157.42425781 -28.87109375 158.36523438 C-30.16753332 165.13181531 -30.16753332 165.13181531 -28.9609375 171.78515625 C-24.1072271 178.12084565 -18.19808562 183.63848882 -12.51953125 189.21875 C-10.70088132 191.01988896 -8.882531 192.82133049 -7.06445312 194.62304688 C-4.22829794 197.42825415 -1.39040307 200.23157834 1.45385742 203.02856445 C4.21960236 205.7517705 6.97563444 208.48451287 9.73046875 211.21875 C10.57436661 212.04402695 11.41826447 212.86930389 12.28773499 213.71958923 C20.52226141 221.91846228 27.77712934 230.861856 28.4765625 242.91015625 C27.89785579 254.87393086 22.75001163 267.19720201 19.14453125 278.53125 C18.67491147 280.01670374 18.20562095 281.5022616 17.7366333 282.98791504 C16.49331867 286.92370411 15.24608153 290.85823776 13.99763107 294.79240036 C11.91878923 301.34449938 9.84422801 307.89795612 7.77026558 314.45160103 C7.25147481 316.0908655 6.73252716 317.73008034 6.21342278 319.36924553 C2.88963883 329.86739705 -0.38839674 340.37760184 -3.6015625 350.91015625 C-4.2813781 353.12837215 -4.96130519 355.3465539 -5.64135742 357.56469727 C-6.57226295 360.60231576 -7.49892836 363.64083238 -8.41055298 366.68429565 C-16.54429234 393.83589398 -16.54429234 393.83589398 -29.7578125 401.87890625 C-36.62209678 405.04703746 -45.41369998 404.96877543 -52.6171875 403.09375 C-54.89625901 402.16104779 -56.88441649 401.10582361 -58.9609375 399.78515625 C-59.58484375 399.39585937 -60.20875 399.0065625 -60.8515625 398.60546875 C-66.61960522 394.36721127 -69.68936966 388.45361632 -71.9609375 381.78515625 C-73.24923326 370.98043147 -70.98638599 361.60977959 -67.60546875 351.44921875 C-67.1451756 350.01215262 -66.68683042 348.57446131 -66.23028564 347.13619995 C-65.26535092 344.11026876 -64.28729624 341.08905948 -63.29788208 338.07104492 C-61.75816201 333.37411125 -60.24995865 328.66742149 -58.74584961 323.95898438 C-55.84449341 314.89224579 -52.90716591 305.83739645 -49.9609375 296.78515625 C-49.18283413 294.39293896 -48.40483063 292.00068918 -47.62695312 289.60839844 C-47.27772293 288.53439789 -46.92849274 287.46039734 -46.56867981 286.35385132 C-45.32540697 282.52265785 -44.09015518 278.68890825 -42.85629272 274.85467529 C-42.04287708 272.34513111 -41.21258937 269.84165808 -40.38012695 267.33837891 C-39.89735343 265.85208141 -39.41513443 264.36560363 -38.93359375 262.87890625 C-38.52375244 261.63818359 -38.11391113 260.39746094 -37.69165039 259.11914062 C-36.88176188 255.4239059 -36.7977771 253.38214892 -37.9609375 249.78515625 C-39.63678236 247.57965443 -41.23024142 245.72497112 -43.16015625 243.7734375 C-43.69323898 243.21594315 -44.22632172 242.65844879 -44.77555847 242.08406067 C-46.48917655 240.30257715 -48.22178503 238.54169964 -49.9609375 236.78515625 C-50.52427795 236.21343689 -51.08761841 235.64171753 -51.66802979 235.05267334 C-55.67379075 230.9962193 -59.71868463 226.98005763 -63.7734375 222.97265625 C-76.96122395 209.93655734 -76.96122395 209.93655734 -82.3034668 203.65209961 C-84.92771819 200.69619294 -87.78352193 197.98767125 -90.62280273 195.24023438 C-104.09057935 182.17886764 -112.05163736 171.34546343 -112.95703125 152.0625 C-113.46376749 112.61999384 -100.40819308 72.23568871 -81.9609375 37.78515625 C-81.59468262 37.09663574 -81.22842773 36.40811523 -80.85107422 35.69873047 C-76.49682602 27.56819873 -72.11828401 19.71217107 -65.9609375 12.78515625 C-65.27 11.96660156 -64.5790625 11.14804688 -63.8671875 10.3046875 C-48.15338923 -7.00668026 -20.03205267 -14.40467392 0 0 Z " fill="#ffffff" transform="translate(247.9609375,103.21484375)"/>
<path d="M0 0 C10.94338568 7.61928559 18.21297829 20.04564841 21 33 C22.47199288 51.224287 19.45383889 65.6444083 7.875 80.125 C-2.37722957 91.2559921 -15.6810421 96.37746339 -30.5546875 97.03125 C-43.7238653 96.91180168 -56.07802063 92.78032903 -66 84 C-67.01707031 83.10474609 -67.01707031 83.10474609 -68.0546875 82.19140625 C-78.24203401 72.63836622 -83.98200381 60.65013293 -84.47290039 46.68286133 C-84.64295507 30.23964619 -80.08471132 17.33328189 -68.75 5.1875 C-49.36215791 -13.15235063 -21.98775826 -13.05715617 0 0 Z " fill="#ffffff" transform="translate(333,18)"/>
<path d="M0 0 C1.54973532 0.7555134 3.09954108 1.51088233 4.64941406 2.26611328 C15.36848022 7.4967974 26.04258282 12.81389269 36.69873047 18.17138672 C44.72611871 22.19961268 52.80577733 26.10287469 60.92089844 29.95068359 C69.27234738 33.92292688 77.53434334 38.06495861 85.79589844 42.22021484 C92.9518401 45.81099082 100.14416493 49.3127814 107.375 52.75 C109.24747609 53.64566557 111.11987305 54.54149658 112.9921875 55.4375 C115.76457424 56.7632103 118.53967722 58.08098769 121.32519531 59.37890625 C124.05828196 60.65276229 126.77955474 61.94941187 129.5 63.25 C130.30679199 63.61762451 131.11358398 63.98524902 131.94482422 64.36401367 C138.21001328 67.39840359 143.33585851 71.73421701 146.5 78.0625 C147.1533128 86.45505675 146.73410376 92.08917253 141.3125 98.75 C136.73101322 102.51700024 132.26615796 104.41306419 126.26171875 104.1171875 C118.22265899 103.16950844 111.12229557 98.92182049 104 95.3125 C102.43657554 94.53488029 100.87243864 93.7586914 99.30761719 92.98388672 C95.41366009 91.05137376 91.52882515 89.10134376 87.6472168 87.14416504 C84.51321594 85.56540543 81.37380034 83.99763347 78.234375 82.4296875 C75.01811948 80.82251003 71.80262594 79.21395936 68.59033203 77.59887695 C60.78814199 73.6805667 52.9276567 69.89753173 45.04003906 66.15478516 C38.1493827 62.8759554 31.31653599 59.49249422 24.5 56.0625 C16.84789299 52.2145974 9.17034186 48.43305224 1.4375 44.75 C0.52484375 44.31405518 -0.3878125 43.87811035 -1.328125 43.42895508 C-5.68552392 41.34945629 -10.04528911 39.27528703 -14.41357422 37.21875 C-17.91912581 35.5681099 -21.41931681 33.90648963 -24.91696167 32.23916626 C-26.28920062 31.5875352 -27.66329203 30.93978877 -29.03933716 30.29623413 C-45.9144061 22.39962525 -45.9144061 22.39962525 -50.4375 14.8125 C-52.20450609 8.57600792 -52.58185857 2.79099155 -49.9375 -3.25 C-47.36029613 -7.78074274 -43.51558046 -11.02458014 -38.5 -12.54296875 C-25.06542568 -15.19314845 -11.72753134 -5.74091739 0 0 Z " fill="#ffffff" transform="translate(257.5,135.9375)"/>
<path d="M0 0 C7.95317981 0.63077457 15.72443157 1.91950261 23.56640625 3.36328125 C24.84047836 3.5965361 26.11455048 3.82979095 27.42723083 4.07011414 C30.10791425 4.56210549 32.78789497 5.05774859 35.4675293 5.55541992 C38.87680342 6.18781483 42.28850737 6.80589459 45.70100498 7.42062092 C48.99133086 8.01652121 52.2786258 8.62849578 55.56640625 9.23828125 C56.77913712 9.45511063 57.99186798 9.67194 59.24134827 9.89533997 C69.73479982 11.87564021 78.7854714 14.77952405 86 23 C92.60806532 32.75632473 92.25010465 42.98452644 91.48681641 54.35302734 C91.42029373 55.44046234 91.35377106 56.52789734 91.28523254 57.64828491 C91.06521188 61.21137761 90.83362907 64.77361074 90.6015625 68.3359375 C90.444987 70.82309258 90.28902099 73.3102861 90.13363647 75.79751587 C89.80730238 80.99408546 89.47558531 86.19027298 89.13964844 91.38623047 C88.70893279 98.05053728 88.28866244 104.71543732 87.87200356 111.38063622 C87.55078461 116.50911873 87.22561937 121.63734459 86.89908981 126.76549149 C86.74273907 129.22386842 86.58726095 131.68230101 86.43266678 134.14078903 C86.21622081 137.56856183 85.99483843 140.99597924 85.77197266 144.42333984 C85.70854172 145.44053101 85.64511078 146.45772217 85.57975769 147.5057373 C85.51803879 148.43916962 85.45631989 149.37260193 85.39273071 150.33432007 C85.34073328 151.14357122 85.28873585 151.95282238 85.23516273 152.7865963 C85.0066134 154.93775322 84.5792981 156.91847522 84 159 C75.08634817 158.36113758 66.57777288 156.08995015 57.9375 153.9375 C56.38880012 153.55611948 54.83997289 153.17525569 53.29101562 152.79492188 C49.52584829 151.86923561 45.76247623 150.93656158 42 150 C40.19762844 144.82623393 42.05180137 140.70089375 43.7109375 135.74609375 C44.14232529 134.40104515 44.14232529 134.40104515 44.58242798 133.02882385 C45.80891167 129.20497929 47.06205889 125.39005309 48.31542969 121.57495117 C54.91168871 103.25891758 54.91168871 103.25891758 53.5 84.3125 C53.2009375 83.31863281 52.901875 82.32476562 52.59375 81.30078125 C48.21122837 72.22423524 40.61887353 65.39023292 33.5 58.4375 C28.0624906 53.10381857 22.7296951 47.78831554 17.77832031 41.9987793 C13.49304763 37.18225988 8.76061904 32.76762658 4.14453125 28.27148438 C3.36722656 27.50513672 2.58992187 26.73878906 1.7890625 25.94921875 C1.08475098 25.26174561 0.38043945 24.57427246 -0.34521484 23.8659668 C-2.94744366 20.93164475 -3.26738762 18.07946428 -3.234375 14.25 C-2.72885858 9.39704236 -1.29452077 4.69263779 0 0 Z " fill="#ffffff" transform="translate(226,252)"/>
<path d="M0 0 C9.01754545 -0.57558801 15.91225634 2.15859851 22.85546875 7.91015625 C29.59166879 14.47457706 33.50731355 21.37993707 34.3359375 30.83203125 C34.46115911 43.5921128 32.36014264 51.40977727 23.3671875 60.80078125 C15.09946027 68.48185457 6.76359961 70.51059575 -4.4296875 70.30859375 C-13.88898326 69.49099598 -20.43511995 65.69655386 -27 59 C-26.278125 58.29875 -25.55625 57.5975 -24.8125 56.875 C-14.16390258 46.10641838 -10.43374998 33.72082154 -6.25 19.5 C-5.51144837 17.01923633 -4.77034175 14.53925577 -4.027771 12.05969238 C-3.5696733 10.52694536 -3.11436403 8.99336153 -2.66217041 7.4588623 C-1.10852223 2.21704445 -1.10852223 2.21704445 0 0 Z " fill="#ffffff" transform="translate(251,449)"/>
<path d="M0 0 C2.16015625 0.47265625 2.16015625 0.47265625 5.22265625 2.41015625 C7.84978472 6.56271415 7.64849437 9.6644398 7.16015625 14.47265625 C6.37564012 17.93678065 5.26139514 21.24707498 4.08984375 24.59765625 C3.77113312 25.54342529 3.45242249 26.48919434 3.12405396 27.46362305 C2.10708601 30.47111274 1.07141407 33.47176584 0.03515625 36.47265625 C-0.63794234 38.45531419 -1.30982739 40.43838455 -1.98046875 42.421875 C-3.29226397 46.29552062 -4.62381062 50.16152507 -5.96972656 54.0234375 C-7.17179363 57.48351343 -8.31269146 60.95218019 -9.38964844 64.453125 C-11.9824097 72.71177953 -14.29756283 78.63679186 -21.83984375 83.47265625 C-23.50056416 84.68542576 -25.16069423 85.89900395 -26.8203125 87.11328125 C-28.55258822 88.32129843 -30.28830642 89.52439339 -32.02734375 90.72265625 C-32.90326172 91.33367187 -33.77917969 91.9446875 -34.68164062 92.57421875 C-38.66772869 95.34241941 -42.6580761 98.00611899 -46.83984375 100.47265625 C-48.46732378 98.70404787 -50.09187832 96.93289949 -51.71484375 95.16015625 C-52.17503906 94.66064453 -52.63523437 94.16113281 -53.109375 93.64648438 C-58.83984375 87.37618886 -58.83984375 87.37618886 -58.83984375 83.47265625 C-56.63671875 81.74609375 -56.63671875 81.74609375 -53.58984375 79.84765625 C-52.50058594 79.14382812 -51.41132813 78.44 -50.2890625 77.71484375 C-49.43513916 77.16328613 -49.43513916 77.16328613 -48.56396484 76.60058594 C-45.79484686 74.78901342 -43.09018158 72.9025572 -40.40234375 70.97265625 C-39.45488281 70.30234375 -38.50742187 69.63203125 -37.53125 68.94140625 C-30.81291701 62.77887149 -28.30368017 54.76647455 -25.58984375 46.2734375 C-24.80879206 43.90683558 -24.02753597 41.54030112 -23.24609375 39.17382812 C-22.03680993 35.4689193 -20.83250371 31.76246952 -19.6328125 28.05444336 C-18.46449131 24.45648029 -17.27808235 20.86486288 -16.08984375 17.2734375 C-15.73760742 16.16503006 -15.38537109 15.05662262 -15.02246094 13.91462708 C-12.27182787 5.63610287 -9.71535001 -0.632552 0 0 Z " fill="#ffffff" transform="translate(455.83984375,113.52734375)"/>
<path d="M0 0 C-1.57605501 4.72816502 -5.48061323 6.47057375 -9.5 9.1875 C-10.27859375 9.74630859 -11.0571875 10.30511719 -11.859375 10.88085938 C-16.67157293 14.14343397 -20.21855522 15.64064706 -26.06616211 15.45458984 C-28 15 -28 15 -31.0625 12.4375 C-33.37655196 8.33192394 -33.95746502 6.6277476 -33 2 C-30.44852205 -1.91605669 -27.49950315 -5.03878004 -23.5625 -7.5625 C-14.39176787 -9.12823475 -7.63458083 -4.45738485 0 0 Z " fill="#ffffff" transform="translate(371,239)"/>
<path d="M0 0 C0.125 2.875 0.125 2.875 0 6 C-0.66 6.66 -1.32 7.32 -2 8 C-2.64767793 10.57061311 -2.64767793 10.57061311 -3 13 C-3.33 13 -3.66 13 -4 13 C-4.59222166 9.98739416 -5.05293887 7.0757485 -5 4 C-2.07317073 0 -2.07317073 0 0 0 Z " fill="#ffffff" transform="translate(408,381)"/>
<path d="M0 0 C0 0.33 0 0.66 0 1 C-1.2375 1.0825 -2.475 1.165 -3.75 1.25 C-6.7990005 1.63314874 -7.89641671 1.92297653 -10.4375 3.8125 C-11.96729184 5.95420858 -12.63075651 7.41529556 -13 10 C-13.66 10 -14.32 10 -15 10 C-12.49875011 0.8287504 -8.97432103 -0.69033239 0 0 Z " fill="#ffffff" transform="translate(458,114)"/>
<path d="M0 0 C3.465 1.485 3.465 1.485 7 3 C5.68 3.33 4.36 3.66 3 4 C3 4.99 3 5.98 3 7 C2.34 7 1.68 7 1 7 C0.67 4.69 0.34 2.38 0 0 Z " fill="#ffffff" transform="translate(329,425)"/>
<path d="M0 0 C2.97 0.495 2.97 0.495 6 1 C6.33 2.32 6.66 3.64 7 5 C6.01 5 5.02 5 4 5 C1.8125 2.5 1.8125 2.5 0 0 Z " fill="#ffffff" transform="translate(263,313)"/>
<path d="M0 0 C1.32 0 2.64 0 4 0 C4 0.66 4 1.32 4 2 C2.66666667 3.33333333 1.33333333 4.66666667 0 6 C-1.23512079 8.13309192 -1.23512079 8.13309192 -2 10 C-1.125 2.25 -1.125 2.25 0 0 Z " fill="#ffffff" transform="translate(252,42)"/>
<path d="M0 0 C2 3 2 3 2 7 C0.68 7.33 -0.64 7.66 -2 8 C-1.47731534 5.23723823 -0.89130413 2.6739124 0 0 Z " fill="#ffffff" transform="translate(156,161)"/>
<path d="M0 0 C1.65 0 3.3 0 5 0 C5.33 1.32 5.66 2.64 6 4 C5.01 4 4.02 4 3 4 C1.3125 2 1.3125 2 0 0 Z " fill="#ffffff" transform="translate(256,306)"/>
<path d="M0 0 C1.32 0 2.64 0 4 0 C3.67 1.65 3.34 3.3 3 5 C1.68 3.68 0.36 2.36 -1 1 C-0.67 0.67 -0.34 0.34 0 0 Z " fill="#ffffff" transform="translate(266,98)"/>
</svg>
