<?xml version="1.0" standalone="no"?>
<!DOCTYPE svg PUBLIC "-//W3C//DTD SVG 20010904//EN"
 "http://www.w3.org/TR/2001/REC-SVG-20010904/DTD/svg10.dtd">
<svg version="1.0" xmlns="http://www.w3.org/2000/svg"
 width="50.000000pt" height="50.000000pt" viewBox="0 0 50.000000 50.000000"
 preserveAspectRatio="xMidYMid meet">

<g transform="translate(0.000000,50.000000) scale(0.100000,-0.100000)"
fill="#ffffff" stroke="none">
<path d="M10 336 c0 -44 5 -67 15 -76 10 -8 15 -37 17 -93 2 -65 6 -82 18 -82
12 0 16 17 18 79 2 52 8 83 17 93 17 17 21 143 5 143 -5 0 -10 -22 -10 -50 0
-27 -4 -50 -10 -50 -5 0 -10 23 -10 50 0 28 -4 50 -10 50 -5 0 -10 -22 -10
-50 0 -27 -4 -50 -10 -50 -5 0 -10 23 -10 50 0 28 -4 50 -10 50 -6 0 -10 -28
-10 -64z"/>
<path d="M432 243 c3 -133 5 -158 18 -158 12 0 17 18 22 80 3 44 9 103 13 130
6 43 4 54 -15 78 -12 15 -26 27 -31 27 -6 0 -8 -62 -7 -157z"/>
<path d="M201 373 c-96 -50 -106 -182 -20 -246 38 -28 106 -32 148 -10 96 50
106 182 20 246 -38 28 -106 32 -148 10z m69 -41 c0 -4 -13 -13 -30 -19 -60
-22 -64 -101 -8 -132 37 -21 79 -6 98 36 8 18 19 33 24 33 14 0 -4 -54 -25
-75 -26 -27 -99 -27 -128 -1 -45 40 -34 126 19 153 28 14 50 17 50 5z"/>
</g>
</svg>
