<?xml version="1.0" standalone="no"?>
<!DOCTYPE svg PUBLIC "-//W3C//DTD SVG 20010904//EN"
 "http://www.w3.org/TR/2001/REC-SVG-20010904/DTD/svg10.dtd">
<svg version="1.0" xmlns="http://www.w3.org/2000/svg"
 width="32.000000pt" height="32.000000pt" viewBox="0 0 32.000000 32.000000"
 preserveAspectRatio="xMidYMid meet">

<g transform="translate(0.000000,32.000000) scale(0.100000,-0.100000)"
fill="#ffffff" stroke="none">
<path d="M72 287 c-7 -15 -24 -32 -39 -39 l-28 -11 27 -10 c16 -6 32 -23 39
-41 l11 -31 13 29 c7 16 25 34 41 41 l29 13 -31 11 c-18 7 -35 23 -41 39 l-10
27 -11 -28z"/>
<path d="M201 217 c-10 -31 -22 -42 -55 -57 l-41 -18 30 -11 c17 -6 36 -14 43
-16 6 -2 12 -9 12 -14 0 -5 5 -22 11 -38 l11 -28 18 42 c14 32 25 43 49 48 46
10 46 23 1 36 -22 7 -40 17 -40 23 -1 6 -7 25 -14 41 l-13 30 -12 -38z"/>
<path d="M45 102 c-3 -11 -15 -24 -28 -30 l-22 -11 22 -7 c12 -3 25 -15 28
-25 7 -22 25 -26 25 -5 0 7 10 21 23 29 l22 16 -22 7 c-13 3 -23 12 -23 20 0
21 -18 26 -25 6z"/>
</g>
</svg>
